<?xml version="1.0" encoding="UTF-8"?><svg xmlns="http://www.w3.org/2000/svg" xmlns:xlink="http://www.w3.org/1999/xlink" height="862.8" preserveAspectRatio="xMidYMid meet" version="1.0" viewBox="0.0 0.0 798.4 862.8" width="798.4" zoomAndPan="magnify"><g><g id="change1_1"><path d="M 798.417969 0.00390625 L 0 0.00390625 L 0 862.820312 L 798.417969 862.820312 L 798.417969 0.00390625" fill="#6145a5"/></g><g id="change2_1"><path d="M 252.320312 329.738281 C 229.351562 333.113281 214.699219 363.054688 219.621094 396.554688 C 224.546875 430.058594 247.191406 454.515625 270.164062 451.140625 C 293.136719 447.765625 307.785156 417.824219 302.863281 384.320312 C 297.9375 350.820312 275.292969 326.363281 252.320312 329.738281 Z M 561.851562 309.347656 C 539.109375 304.664062 515.105469 327.789062 508.273438 360.957031 C 501.445312 394.121094 514.363281 424.851562 537.105469 429.53125 C 559.847656 434.214844 583.851562 411.089844 590.683594 377.925781 C 597.511719 344.757812 584.59375 314.03125 561.851562 309.347656 Z M 502.742188 467.898438 C 503.066406 468.226562 502.722656 469.652344 502.691406 470.015625 C 501.59375 483.367188 501.054688 496.730469 500.390625 510.105469 C 499.957031 518.828125 500.269531 529.324219 500.964844 540.414062 C 503.46875 580.476562 510.914062 621.527344 506.144531 623.3125 C 467.929688 637.585938 447.035156 681.683594 421.046875 673.136719 C 417.828125 672.078125 338.292969 627.773438 336.71875 625.824219 C 333.164062 621.414062 332.933594 580.800781 332.25 574.273438 C 330.203125 554.746094 327.632812 535.304688 324.558594 515.910156 C 323.410156 508.648438 322.226562 501.386719 320.753906 494.183594 C 320.324219 492.085938 319.894531 489.980469 319.417969 487.894531 C 319.191406 486.898438 317.882812 484.1875 318.554688 484.957031" fill="#d043a9"/></g><g id="change3_1"><path d="M 560.050781 409.128906 C 559.933594 409.128906 559.816406 409.125 559.699219 409.117188 C 556.84375 408.925781 554.679688 406.457031 554.871094 403.601562 C 555.308594 397.027344 555.386719 389.90625 555.105469 381.867188 C 554.394531 382.703125 553.699219 383.554688 553.023438 384.433594 C 552.882812 384.617188 552.683594 384.867188 552.4375 385.171875 C 548.941406 389.574219 547.753906 391.636719 547.351562 392.5625 C 547.730469 394.535156 546.933594 396.636719 545.164062 397.835938 C 542.789062 399.4375 539.570312 398.816406 537.96875 396.441406 C 534.6875 391.589844 539.105469 385.289062 544.324219 378.722656 C 544.527344 378.464844 544.695312 378.253906 544.816406 378.101562 C 553.164062 367.269531 563.960938 359.535156 574.402344 352.050781 L 576.945312 350.226562 C 579.269531 348.554688 582.507812 349.082031 584.179688 351.40625 C 585.851562 353.730469 585.324219 356.96875 583 358.640625 L 580.4375 360.476562 C 575.066406 364.328125 569.847656 368.066406 565.03125 372.132812 C 565.5625 373.914062 565.511719 376.265625 565.4375 379.480469 C 565.425781 379.859375 565.417969 380.15625 565.421875 380.316406 C 565.765625 389.148438 565.699219 397.015625 565.214844 404.289062 C 565.035156 407.027344 562.753906 409.128906 560.050781 409.128906 Z M 255.230469 438.386719 C 252.9375 438.386719 250.835938 436.847656 250.222656 434.523438 C 248.027344 426.199219 246.570312 417.535156 245.433594 410.058594 C 241.085938 406.742188 236.832031 403.089844 232.558594 399.015625 C 231.082031 397.605469 226.390625 391.6875 224.441406 389.207031 C 222.671875 386.957031 223.0625 383.695312 225.3125 381.929688 C 227.5625 380.160156 230.820312 380.550781 232.589844 382.800781 C 235.425781 386.40625 238.957031 390.765625 239.722656 391.519531 C 249.335938 400.691406 258.847656 407.566406 269.648438 413.148438 C 272.191406 414.464844 273.1875 417.589844 271.871094 420.132812 C 270.558594 422.675781 267.433594 423.671875 264.886719 422.359375 C 262.277344 421.007812 259.742188 419.59375 257.257812 418.097656 C 258.078125 422.644531 259.050781 427.339844 260.246094 431.882812 C 260.976562 434.648438 259.324219 437.484375 256.558594 438.214844 C 256.113281 438.332031 255.671875 438.386719 255.230469 438.386719" fill="#ac223b"/></g><g id="change4_1"><path d="M 261.59375 298.402344 C 261.59375 298.402344 224.53125 507.847656 408.734375 563.113281 C 408.734375 563.113281 566.019531 526.964844 542.019531 304.039062 C 518.023438 81.109375 372.644531 126.003906 325.863281 178.476562 C 279.085938 230.949219 261.59375 298.402344 261.59375 298.402344" fill="#c682c7"/></g><g id="change2_2"><path d="M 402.164062 348.992188 L 420.765625 404.429688 C 420.765625 404.429688 406.117188 451.144531 405.425781 451.035156 C 401.644531 450.4375 382.613281 410.265625 383.714844 406.929688 C 387.125 396.578125 402.390625 349.117188 402.164062 348.992188" fill="#d043a9"/></g><g id="change3_2"><path d="M 458.410156 279.640625 C 443.226562 279.640625 430.898438 282.324219 430.898438 285.628906 C 430.898438 288.933594 443.226562 291.617188 458.410156 291.617188 C 473.597656 291.617188 485.925781 288.933594 485.925781 285.628906 C 485.925781 282.324219 473.597656 279.640625 458.410156 279.640625 Z M 326.925781 285.363281 C 310.65625 285.363281 297.445312 287.949219 297.445312 291.136719 C 297.445312 294.324219 310.65625 296.914062 326.925781 296.914062 C 343.195312 296.914062 356.402344 294.324219 356.402344 291.136719 C 356.402344 287.949219 343.195312 285.363281 326.925781 285.363281 Z M 441.933594 346.425781 C 444.78125 346.382812 447.058594 344.027344 447.03125 341.175781 C 447.03125 341.105469 447.019531 333.984375 451.8125 329.230469 C 455.039062 326.023438 459.914062 324.457031 466.292969 324.5625 C 478.886719 324.777344 482.179688 341.273438 482.308594 341.960938 C 482.828125 344.777344 485.53125 346.636719 488.347656 346.117188 C 491.160156 345.597656 493.023438 342.898438 492.503906 340.082031 C 490.878906 331.253906 483.34375 314.488281 466.472656 314.199219 C 457.128906 314.015625 449.691406 316.65625 444.394531 321.984375 C 436.5 329.929688 436.65625 340.917969 436.667969 341.382812 C 436.730469 344.199219 439.035156 346.425781 441.847656 346.425781 C 441.875 346.429688 441.902344 346.429688 441.933594 346.425781 Z M 309.894531 351.113281 C 310.082031 350.472656 314.660156 335.410156 330.949219 334.988281 C 343.0625 334.671875 346.730469 345.679688 347.097656 346.90625 C 347.878906 349.65625 350.746094 351.253906 353.5 350.472656 C 356.253906 349.691406 357.851562 346.824219 357.066406 344.070312 C 355.105469 337.160156 347.0625 324.207031 330.679688 324.628906 C 311.445312 325.121094 302.148438 340.324219 299.917969 348.292969 C 299.152344 351.039062 300.75 353.878906 303.492188 354.660156 C 303.964844 354.796875 304.441406 354.859375 304.910156 354.859375 C 307.160156 354.859375 309.234375 353.378906 309.894531 351.113281 Z M 438.273438 475.722656 C 440.734375 474.261719 441.546875 471.078125 440.085938 468.617188 C 438.625 466.15625 435.441406 465.347656 432.984375 466.804688 C 418.445312 475.433594 401 475.410156 385.117188 466.746094 C 382.84375 465.507812 379.910156 463.144531 377.070312 460.855469 C 373.308594 457.824219 369.75 454.960938 366.53125 453.644531 C 363.882812 452.558594 360.855469 453.828125 359.773438 456.476562 C 358.6875 459.125 359.957031 462.152344 362.605469 463.238281 C 364.425781 463.980469 367.6875 466.609375 370.566406 468.929688 C 373.761719 471.503906 377.066406 474.160156 380.15625 475.847656 C 389.703125 481.054688 399.746094 483.65625 409.621094 483.65625 C 419.574219 483.65625 429.355469 481.011719 438.273438 475.722656 Z M 332.574219 143.878906 C 340.148438 129.816406 350.457031 116.078125 362.324219 105.839844 C 403.808594 70.050781 453.207031 71.066406 497.1875 101.882812 C 547.359375 137.039062 566.609375 196.925781 569.761719 255.941406 C 570.792969 275.296875 569.835938 312.28125 565.292969 331.65625 C 561.753906 346.746094 542.8125 371.714844 542.496094 372.1875 C 535.269531 382.917969 547.035156 336.960938 542.285156 326.003906 C 537.726562 315.484375 525.734375 314.558594 513.996094 306.441406 C 486.757812 287.605469 485.441406 222.828125 458.203125 203.96875 C 430.757812 184.960938 373.25 226.890625 323.65625 185.714844 C 296.085938 234.039062 275.007812 272.503906 267.511719 328.34375 C 265.007812 346.992188 263.929688 365.695312 263.539062 384.503906 C 263.402344 390.945312 264.097656 400.933594 264.316406 407.375 C 264.390625 409.550781 210.484375 370.210938 206.972656 267.238281 C 206.132812 242.554688 213.160156 218.425781 225.695312 197.320312 C 243 168.179688 272.460938 148.347656 305.683594 142.238281 C 318.054688 139.964844 330.40625 142.644531 332.574219 143.878906" fill="#ac223b"/></g><g id="change5_1"><path d="M 796.917969 860.800781 C 791.277344 795.480469 764.929688 712.222656 685.914062 685.035156 C 647.976562 671.980469 589.84375 663.742188 556.871094 640.628906 C 543.964844 631.578125 514.042969 610.605469 514.042969 610.605469 L 506.054688 576.496094 C 506.054688 576.496094 462.902344 599.339844 416.226562 599.617188 C 373.273438 599.875 326.492188 577.582031 326.417969 577.453125 C 326.417969 577.453125 319.734375 609.574219 317.496094 620.851562 C 307.78125 628.121094 291.453125 637.4375 289.011719 638.644531 C 249 658.410156 204.648438 666.8125 163.84375 684.851562 C 83.019531 720.585938 32.078125 781.96875 19.222656 860.800781 L 796.917969 860.800781" fill="#171622"/></g></g></svg>