<?xml version="1.0" encoding="UTF-8"?><svg xmlns="http://www.w3.org/2000/svg" xmlns:xlink="http://www.w3.org/1999/xlink" height="862.8" preserveAspectRatio="xMidYMid meet" version="1.0" viewBox="0.0 0.0 798.4 862.8" width="798.4" zoomAndPan="magnify"><defs><clipPath id="a"><path d="M 70 581 L 226 581 L 226 862.820312 L 70 862.820312 Z M 70 581"/></clipPath><clipPath id="b"><path d="M 568 594 L 673 594 L 673 862.820312 L 568 862.820312 Z M 568 594"/></clipPath><clipPath id="c"><path d="M 143 541 L 598 541 L 598 862.820312 L 143 862.820312 Z M 143 541"/></clipPath></defs><g><g id="change1_1"><path d="M 798.417969 0.00390625 L 798.417969 862.820312 L 0 862.820312 L 0 0.00390625 L 798.417969 0.00390625" fill="#f68417" fill-rule="evenodd"/></g><g id="change2_1"><path d="M 298.746094 394.871094 C 264.074219 378.113281 234.976562 342.875 253.542969 296.8125 C 270.070312 255.800781 289.292969 306.503906 289.355469 306.105469" fill="#731a23" fill-rule="evenodd"/></g><g id="change2_2"><path d="M 519.992188 325.746094 C 521.304688 309.472656 551.578125 299.976562 560.015625 318.140625 C 577.019531 354.734375 522.570312 408.25 484.785156 407.652344" fill="#731a23" fill-rule="evenodd"/></g><g id="change3_3"><path d="M 472.199219 428.039062 C 441.5 527.667969 479.40625 543.832031 484.777344 560.84375 C 489.730469 576.527344 425.679688 610.304688 396.582031 618.910156 C 331.15625 638.25 277.257812 558.515625 280.035156 551.171875 C 286.492188 534.101562 338.78125 490.746094 312.042969 419.34375" fill="#9b2e1e" fill-rule="evenodd"/></g><g id="change2_3"><path d="M 319.1875 459.039062 C 325.800781 490.300781 469.203125 452.050781 464.5 463.394531 C 459.796875 474.734375 422.796875 532.71875 381.382812 524.140625 C 339.96875 515.558594 319.1875 459.039062 319.1875 459.039062" fill="#731a23" fill-rule="evenodd"/></g><g id="change3_4"><path d="M 529.449219 282.3125 C 526.65625 330.507812 508.15625 382.644531 489.621094 427.292969 C 473.351562 466.488281 438.867188 499.144531 389.46875 502.1875 C 350.136719 504.613281 314.890625 454.332031 304.285156 433.683594 C 293.800781 413.257812 283.820312 328.167969 283.570312 301.101562 C 283.425781 285.417969 285.679688 269.859375 289.820312 254.714844 C 298.984375 221.191406 324.839844 170.769531 356.347656 154.378906 C 504.914062 77.085938 530.582031 262.75 529.449219 282.3125" fill="#9b2e1e" fill-rule="evenodd"/></g><g id="change4_1"><path d="M 287.273438 438.0625 C 284.925781 429.742188 282.804688 422.226562 281.550781 417.371094 C 274.671875 390.761719 288.527344 371.84375 282.8125 344.886719 C 277.960938 322.011719 279.140625 304.71875 277.746094 289.414062 C 275.152344 287.375 241.914062 284.242188 241.941406 265.789062 C 241.957031 253.832031 252.949219 247.179688 256.511719 236.707031 C 258.886719 229.722656 258.765625 222.117188 259.175781 214.65625 C 249.886719 217.21875 239.863281 215.386719 230.402344 206.292969 C 226.609375 202.644531 224.039062 197.566406 222.199219 192.527344 C 220.65625 191.71875 219.148438 190.851562 217.675781 189.929688 C 190.816406 173.105469 185.910156 141 204.117188 116.128906 C 222.726562 90.703125 257.640625 73.234375 289.980469 73.609375 C 320.507812 73.964844 333.625 88.378906 334.5625 106.621094 C 342.988281 108.03125 349.46875 113.679688 350.113281 121.730469 C 353.695312 120.851562 357.320312 120.167969 360.976562 119.703125 C 371.929688 118.3125 382.488281 120.289062 393.328125 120.167969 C 399.214844 109.339844 408.636719 100.128906 417.515625 96.925781 C 455.953125 83.0625 490.199219 110.542969 501.910156 144.886719 C 502.726562 145.582031 503.539062 146.28125 504.351562 146.984375 C 504.605469 142.605469 505.539062 138.261719 507.144531 134.160156 C 512.816406 119.644531 524.148438 113.257812 536.75 112.453125 C 552.539062 100.339844 573.460938 95.542969 593.851562 100.867188 C 651.75 115.984375 653.253906 180.394531 616.332031 215.679688 C 614.921875 220.675781 612.078125 225.488281 607.398438 229.902344 C 599.609375 237.25 588.71875 239.777344 578.074219 238.492188 C 576.480469 238.300781 574.808594 237.964844 573.183594 237.457031 C 571.652344 237.738281 570.101562 237.984375 568.527344 238.191406 C 568.839844 241.492188 568.855469 244.777344 568.53125 248.019531 C 576.121094 259.878906 577.890625 275.953125 573.085938 290.136719 C 568.84375 302.660156 559.339844 309.175781 546.660156 312.550781 C 542.9375 313.539062 539.179688 314.386719 535.476562 315.433594 C 532.035156 321.6875 527.90625 327.738281 525.210938 333.339844 C 514.035156 356.574219 510.277344 383.164062 506.070312 408.230469 C 506.007812 408.613281 505.90625 409.15625 505.777344 409.835938 C 505.878906 411.820312 505.96875 413.90625 506.054688 416.066406 C 517.035156 439.101562 536.308594 455.6875 539.789062 472.941406 C 541.746094 482.648438 543.40625 502.339844 539.359375 511.160156 C 538.539062 512.953125 532.386719 451.914062 507.980469 441.453125 C 500.828125 438.386719 513.804688 491.847656 523.308594 503.683594 C 526.34375 505.925781 521.71875 502.488281 520.96875 501.867188 C 513.675781 495.851562 507.246094 488.589844 502.507812 480.519531 C 493.339844 464.921875 491.523438 446.371094 494.285156 428.859375 C 495.105469 423.667969 496.222656 418.445312 497.6875 413.367188 C 497.554688 412.996094 497.429688 412.621094 497.3125 412.246094 C 490.511719 390.730469 497.160156 366.855469 504.933594 346.464844 C 509.746094 333.839844 514.972656 321.492188 517.242188 308.152344 C 517.355469 307.480469 517.472656 306.8125 517.585938 306.136719 C 500.441406 293.054688 502.085938 264.980469 498.96875 245.238281 C 498.117188 239.84375 496.855469 234.234375 495.027344 228.882812 C 494.171875 227.695312 493.378906 226.710938 492.65625 226.015625 C 465.542969 199.800781 416.828125 218.835938 400.664062 177.9375 C 395.707031 174.015625 391.585938 168.84375 388.703125 163.074219 C 385.699219 167.460938 382.265625 171.554688 378.394531 175.296875 C 371.03125 182.402344 362.738281 188.820312 353.738281 193.886719 C 339.382812 201.964844 324.25 204.15625 318.234375 221.121094 C 310.335938 243.390625 314.824219 256.960938 294.761719 274.390625 C 293.644531 275.363281 290.886719 278.242188 287.859375 280.5625 C 292.15625 312.234375 309.941406 330.046875 294.285156 386.054688 C 287.917969 408.824219 301.328125 421.6875 301.492188 445.390625 C 301.550781 454.332031 301.660156 463.226562 301.023438 472.089844 C 301.671875 473.839844 302.179688 475.675781 302.503906 477.609375 C 306.210938 485.71875 309.839844 494.09375 311.316406 503.851562 C 312.253906 510.0625 312.3125 516.417969 311.601562 522.675781 C 311.875 527.085938 311.671875 531.648438 310.988281 536.445312 C 310.542969 539.578125 303.992188 522.6875 301.273438 515.761719 L 301.1875 515.542969 C 301.050781 516.128906 300.90625 516.722656 300.757812 517.316406 C 300.59375 522.492188 300.402344 527.757812 301.015625 533.53125 C 301.511719 538.210938 302.660156 542.945312 304.355469 547.355469 C 304.949219 548.902344 293.277344 540.976562 293.277344 540.976562 C 293.277344 540.976562 297.972656 559.566406 298.941406 561.4375 C 299.050781 561.648438 300.59375 564.167969 300.238281 564.207031 C 296.589844 564.632812 290.914062 558.800781 289.035156 556.523438 C 278.214844 543.425781 289.914062 526.96875 291.597656 512.855469 C 291.96875 509.773438 292.121094 506.652344 291.925781 503.554688 C 284.613281 498.550781 277.40625 493.800781 276.863281 483.164062 C 276.148438 469.136719 282.179688 454.699219 286.046875 441.410156 C 286.285156 440.59375 286.742188 439.421875 287.273438 438.0625" fill="#2f1616" fill-rule="evenodd"/></g><g id="change2_4"><path d="M 403.882812 340.792969 C 418.050781 340.617188 441.621094 376.957031 426.328125 384.328125 C 421.878906 386.472656 418.800781 380.511719 414.542969 380.847656 C 410.542969 381.164062 409.882812 391.03125 399.882812 386.863281 C 388.210938 382.003906 390.363281 377.207031 385.359375 376.699219 C 380.378906 376.195312 378.621094 382.25 372.914062 375.441406 C 366.972656 368.355469 387.636719 340.996094 403.882812 340.792969" fill="#731a23" fill-rule="evenodd"/></g><g id="change4_2"><path d="M 355.277344 291.867188 C 360.609375 291.867188 364.941406 297.527344 364.941406 304.496094 C 364.941406 311.46875 360.609375 317.128906 355.277344 317.128906 C 349.941406 317.128906 345.609375 311.46875 345.609375 304.496094 C 345.609375 297.527344 349.941406 291.867188 355.277344 291.867188" fill="#2f1616" fill-rule="evenodd"/></g><g id="change4_3"><path d="M 390.035156 257.070312 L 389.367188 256.757812 L 389.214844 256.605469 L 388.925781 256.324219 L 388.777344 256.183594 L 388.628906 256.046875 L 388.480469 255.90625 L 388.183594 255.632812 L 388.03125 255.5 L 387.882812 255.367188 L 387.726562 255.234375 L 387.574219 255.101562 L 387.421875 254.972656 L 386.953125 254.585938 L 386.484375 254.210938 L 386.324219 254.085938 L 386.164062 253.964844 L 386.007812 253.84375 L 385.847656 253.722656 L 385.683594 253.601562 L 385.523438 253.480469 L 385.359375 253.363281 L 385.199219 253.246094 L 385.035156 253.128906 L 384.871094 253.015625 L 384.707031 252.898438 L 384.539062 252.785156 L 384.375 252.675781 L 384.207031 252.5625 L 383.703125 252.234375 L 383.535156 252.128906 L 383.191406 251.917969 L 383.023438 251.8125 L 382.851562 251.710938 L 382.675781 251.609375 L 382.503906 251.507812 L 382.328125 251.40625 L 382.15625 251.308594 L 381.628906 251.015625 L 381.453125 250.921875 L 381.277344 250.824219 L 381.097656 250.730469 L 380.921875 250.640625 L 380.742188 250.546875 L 380.382812 250.367188 L 380.199219 250.277344 L 379.839844 250.105469 L 379.65625 250.019531 L 379.476562 249.933594 L 378.925781 249.6875 L 378.738281 249.605469 L 378.554688 249.523438 L 378.367188 249.445312 L 378.183594 249.367188 L 377.996094 249.289062 L 377.972656 249.28125 L 377.8125 249.210938 L 377.625 249.136719 L 377.4375 249.058594 L 376.6875 248.761719 L 376.5 248.691406 L 376.308594 248.621094 L 376.121094 248.550781 L 375.929688 248.480469 L 374.972656 248.148438 L 374.78125 248.085938 L 374.585938 248.023438 L 374.394531 247.960938 L 374.199219 247.902344 L 374.007812 247.839844 L 373.8125 247.78125 L 373.617188 247.726562 L 373.226562 247.609375 L 372.835938 247.5 L 372.640625 247.449219 L 372.464844 247.398438 L 372.441406 247.394531 L 372.246094 247.339844 L 372.050781 247.289062 L 371.855469 247.234375 L 371.65625 247.183594 L 371.460938 247.132812 L 371.261719 247.085938 L 371.066406 247.035156 L 370.46875 246.894531 L 370.070312 246.808594 L 369.871094 246.761719 L 369.671875 246.722656 L 369.472656 246.679688 L 369.273438 246.640625 L 369.070312 246.597656 L 368.871094 246.558594 L 368.671875 246.523438 L 368.46875 246.484375 L 368.269531 246.449219 L 368.066406 246.414062 L 367.867188 246.378906 L 367.664062 246.34375 L 367.464844 246.3125 L 366.855469 246.21875 L 366.667969 246.191406 L 366.652344 246.191406 L 366.453125 246.15625 L 366.25 246.128906 L 366.046875 246.097656 L 365.847656 246.066406 L 365.238281 245.984375 L 365.035156 245.960938 L 364.832031 245.933594 L 364.222656 245.863281 L 363.207031 245.765625 L 363.003906 245.75 L 362.800781 245.730469 L 362.59375 245.71875 L 362.1875 245.6875 L 361.78125 245.664062 L 361.574219 245.652344 L 361.371094 245.640625 L 361.167969 245.632812 L 361.101562 245.628906 L 360.964844 245.621094 L 360.355469 245.585938 L 359.949219 245.570312 L 359.742188 245.5625 L 359.539062 245.554688 L 359.339844 245.546875 L 359.136719 245.542969 L 358.929688 245.539062 L 358.726562 245.535156 L 358.554688 245.53125 L 358.523438 245.53125 L 358.320312 245.527344 L 358.121094 245.519531 L 357.917969 245.515625 L 357.714844 245.515625 L 357.511719 245.511719 L 357.308594 245.511719 L 357.105469 245.507812 L 356.902344 245.511719 L 356.5 245.511719 L 356.296875 245.515625 L 355.691406 245.515625 L 355.488281 245.519531 L 355.289062 245.519531 L 355.085938 245.523438 L 354.886719 245.527344 L 354.683594 245.53125 L 354.484375 245.539062 L 354.28125 245.546875 L 354.082031 245.554688 L 354.03125 245.554688 L 353.882812 245.558594 L 353.679688 245.566406 L 353.480469 245.574219 L 353.277344 245.578125 L 353.078125 245.589844 L 352.878906 245.597656 L 352.480469 245.621094 L 352.277344 245.632812 L 352.078125 245.644531 L 351.882812 245.65625 L 351.753906 245.667969 L 351.683594 245.671875 L 351.085938 245.707031 L 350.488281 245.753906 L 350.292969 245.769531 L 350.09375 245.785156 L 349.898438 245.804688 L 349.699219 245.824219 L 349.503906 245.84375 L 349.304688 245.863281 L 349.109375 245.886719 L 348.914062 245.90625 L 348.523438 245.953125 L 348.328125 245.980469 L 348.132812 246.003906 L 347.742188 246.058594 L 347.550781 246.085938 L 347.355469 246.113281 L 347.160156 246.144531 L 347.078125 246.15625 L 346.96875 246.175781 L 346.773438 246.199219 L 346.582031 246.230469 L 346.386719 246.257812 L 345.621094 246.382812 L 344.855469 246.523438 L 344.667969 246.558594 L 344.476562 246.597656 L 344.101562 246.675781 L 343.910156 246.714844 L 343.726562 246.757812 L 343.535156 246.796875 L 343.351562 246.839844 L 343.164062 246.882812 L 342.976562 246.929688 L 342.792969 246.972656 L 342.605469 247.019531 L 342.421875 247.066406 L 342.394531 247.074219 L 342.238281 247.109375 L 342.054688 247.15625 L 341.867188 247.203125 L 341.683594 247.25 L 341.503906 247.300781 L 341.320312 247.347656 L 341.136719 247.398438 L 340.957031 247.445312 L 340.933594 247.453125 L 340.898438 247.460938 L 340.859375 247.472656 L 340.8125 247.484375 L 340.691406 247.523438 L 340.554688 247.566406 L 340.390625 247.621094 L 340.210938 247.683594 L 340.011719 247.753906 L 339.792969 247.832031 L 339.5625 247.917969 L 339.316406 248.007812 L 339.054688 248.105469 L 338.78125 248.207031 L 338.496094 248.316406 L 338.195312 248.429688 L 337.9375 248.53125 L 337.886719 248.550781 L 337.566406 248.667969 L 337.234375 248.792969 L 336.898438 248.921875 L 336.550781 249.054688 L 336.195312 249.191406 L 335.835938 249.332031 L 335.46875 249.476562 L 335.09375 249.625 L 334.71875 249.777344 L 334.339844 249.929688 L 333.953125 250.089844 L 333.570312 250.246094 L 333.179688 250.410156 L 332.988281 250.488281 L 332.792969 250.570312 L 332.597656 250.65625 L 332.40625 250.738281 L 332.210938 250.820312 L 332.015625 250.90625 L 331.824219 250.988281 L 331.628906 251.074219 L 331.4375 251.160156 L 331.246094 251.242188 L 330.863281 251.414062 L 330.675781 251.5 L 330.484375 251.585938 L 330.109375 251.757812 L 329.925781 251.84375 L 329.742188 251.933594 L 329.558594 252.019531 L 329.476562 252.058594 L 329.375 252.101562 L 329.015625 252.273438 L 328.839844 252.355469 L 328.660156 252.441406 L 328.488281 252.523438 L 328.316406 252.609375 L 327.8125 252.855469 L 327.652344 252.941406 L 327.492188 253.023438 L 327.179688 253.1875 L 327.027344 253.265625 L 326.730469 253.429688 L 326.449219 253.585938 L 326.3125 253.664062 L 326.179688 253.742188 L 326.050781 253.820312 L 325.800781 253.96875 L 325.683594 254.046875 L 325.628906 254.082031 L 325.570312 254.117188 L 325.460938 254.1875 L 325.40625 254.226562 L 325.304688 254.296875 L 325.253906 254.328125 L 325.203125 254.363281 L 325.15625 254.398438 L 325.109375 254.429688 L 325.0625 254.464844 L 324.933594 254.558594 L 324.816406 254.652344 L 324.78125 254.679688 L 324.742188 254.710938 L 324.710938 254.738281 L 324.675781 254.765625 L 324.644531 254.792969 L 324.617188 254.820312 L 324.582031 254.851562 L 324.59375 254.839844 L 324.558594 254.867188 L 324.527344 254.898438 L 324.539062 254.886719 L 324.480469 254.945312 L 324.492188 254.929688 L 324.464844 254.957031 L 324.441406 254.984375 L 324.449219 254.96875 L 324.402344 255.023438 L 324.414062 255.003906 L 324.394531 255.03125 L 324.375 255.054688 L 324.386719 255.035156 L 324.359375 255.070312 L 324.375 255.046875 L 324.351562 255.082031 L 324.363281 255.058594 L 324.339844 255.09375 L 324.351562 255.066406 L 324.332031 255.101562 L 324.34375 255.074219 L 324.324219 255.105469 L 324.339844 255.078125 L 324.320312 255.113281 L 324.332031 255.082031 L 324.3125 255.117188 L 324.328125 255.082031 L 324.308594 255.117188 L 324.324219 255.082031 L 324.308594 255.113281 L 324.320312 255.078125 L 324.304688 255.113281 L 324.316406 255.074219 L 324.304688 255.105469 L 324.316406 255.066406 L 324.304688 255.097656 L 324.3125 255.054688 L 324.304688 255.085938 L 324.3125 255.039062 L 324.304688 255.070312 L 324.308594 255.023438 L 324.304688 255.046875 L 324.304688 255.054688 L 324.308594 255.007812 L 324.304688 255.035156 L 324.304688 254.984375 L 324.300781 255.015625 L 324.300781 254.964844 L 324.300781 254.992188 L 324.296875 254.9375 L 324.296875 254.96875 L 324.289062 254.910156 L 324.289062 254.941406 L 324.28125 254.882812 L 324.285156 254.914062 L 324.285156 254.917969 L 324.035156 255.785156 L 323.332031 256.25 L 323.324219 256.25 L 322.484375 256.042969 L 321.992188 255.296875 L 321.992188 255.292969 L 321.980469 255.234375 L 321.957031 255.0625 L 321.953125 254.976562 L 321.953125 254.894531 L 321.960938 254.730469 L 321.984375 254.574219 L 321.996094 254.5 L 322.015625 254.425781 L 322.03125 254.351562 L 322.054688 254.28125 L 322.074219 254.214844 L 322.097656 254.144531 L 322.125 254.078125 L 322.152344 254.015625 L 322.179688 253.949219 L 322.207031 253.886719 L 322.238281 253.824219 L 322.269531 253.765625 L 322.300781 253.703125 L 322.40625 253.527344 L 322.441406 253.472656 L 322.476562 253.414062 L 322.515625 253.355469 L 322.554688 253.300781 L 322.59375 253.242188 L 322.632812 253.1875 L 322.71875 253.078125 L 322.757812 253.019531 L 322.804688 252.964844 L 322.890625 252.855469 L 323.03125 252.691406 L 323.082031 252.632812 L 323.128906 252.578125 L 323.28125 252.414062 L 323.335938 252.355469 L 323.386719 252.300781 L 323.441406 252.246094 L 323.496094 252.1875 L 323.550781 252.132812 L 323.609375 252.078125 L 323.664062 252.019531 L 323.722656 251.964844 L 323.78125 251.90625 L 323.839844 251.851562 L 323.902344 251.792969 L 324.019531 251.679688 L 324.144531 251.566406 L 324.402344 251.332031 L 324.535156 251.214844 L 324.808594 250.980469 L 324.949219 250.863281 L 325.238281 250.621094 L 325.386719 250.503906 L 325.535156 250.382812 L 325.6875 250.261719 L 325.84375 250.140625 L 326 250.015625 L 326.15625 249.894531 L 326.320312 249.773438 L 326.480469 249.648438 L 326.644531 249.523438 L 326.808594 249.402344 L 327.144531 249.152344 L 327.488281 248.902344 L 327.582031 248.835938 L 327.660156 248.78125 L 327.835938 248.65625 L 328.015625 248.535156 L 328.191406 248.410156 L 328.730469 248.046875 L 328.910156 247.921875 L 330.195312 247.074219 L 330.382812 246.953125 L 330.566406 246.835938 L 330.753906 246.71875 L 330.9375 246.597656 L 331.121094 246.480469 L 331.308594 246.363281 L 331.492188 246.246094 L 331.675781 246.132812 L 331.859375 246.015625 L 332.222656 245.789062 L 332.585938 245.566406 L 332.945312 245.347656 L 333.300781 245.132812 L 333.652344 244.917969 L 333.996094 244.710938 L 334.335938 244.511719 L 334.667969 244.3125 L 334.996094 244.121094 L 335.3125 243.9375 L 335.621094 243.757812 L 335.667969 243.730469 L 335.925781 243.585938 L 336.21875 243.425781 L 336.503906 243.269531 L 336.773438 243.121094 L 337.035156 242.980469 L 337.285156 242.847656 L 337.523438 242.722656 L 337.746094 242.605469 L 337.957031 242.496094 L 338.15625 242.394531 L 338.339844 242.300781 L 338.511719 242.21875 L 338.671875 242.140625 L 338.75 242.105469 L 338.824219 242.070312 L 338.902344 242.039062 L 338.972656 242.007812 L 339.175781 241.921875 L 339.574219 241.75 L 339.777344 241.664062 L 340.386719 241.417969 L 340.558594 241.347656 L 340.589844 241.335938 L 340.796875 241.261719 L 341.003906 241.183594 L 341.210938 241.109375 L 341.414062 241.035156 L 341.625 240.960938 L 341.832031 240.886719 L 342.039062 240.816406 L 342.460938 240.675781 L 342.671875 240.609375 L 342.882812 240.539062 L 343.09375 240.472656 L 343.308594 240.40625 L 343.519531 240.339844 L 343.734375 240.277344 L 343.945312 240.214844 L 344.589844 240.027344 L 344.804688 239.96875 L 345.023438 239.910156 L 345.238281 239.851562 L 345.457031 239.796875 L 345.675781 239.738281 L 345.796875 239.707031 L 345.890625 239.6875 L 346.109375 239.636719 L 346.332031 239.585938 L 346.550781 239.539062 L 346.769531 239.488281 L 346.992188 239.441406 L 347.214844 239.398438 L 347.433594 239.351562 L 348.101562 239.222656 L 348.324219 239.183594 L 348.546875 239.140625 L 348.769531 239.101562 L 348.996094 239.066406 L 349.21875 239.027344 L 349.445312 238.992188 L 349.667969 238.953125 L 349.894531 238.921875 L 350.117188 238.886719 L 350.34375 238.855469 L 350.570312 238.820312 L 350.796875 238.789062 L 351.023438 238.761719 L 351.105469 238.75 L 351.25 238.734375 L 351.480469 238.710938 L 351.933594 238.664062 L 352.160156 238.644531 L 352.390625 238.621094 L 352.617188 238.601562 L 352.847656 238.585938 L 353.078125 238.566406 L 353.304688 238.550781 L 353.535156 238.535156 L 353.710938 238.523438 L 353.765625 238.519531 L 353.996094 238.507812 L 354.226562 238.5 L 354.453125 238.488281 L 354.914062 238.472656 L 355.144531 238.46875 L 355.378906 238.464844 L 355.605469 238.460938 L 355.839844 238.453125 L 356.300781 238.453125 L 356.992188 238.464844 L 357.222656 238.472656 L 357.457031 238.480469 L 357.917969 238.496094 L 358.378906 238.519531 L 358.613281 238.53125 L 358.84375 238.546875 L 358.878906 238.546875 L 359.074219 238.5625 L 359.765625 238.621094 L 359.996094 238.644531 L 360.226562 238.664062 L 360.460938 238.691406 L 360.6875 238.714844 L 360.921875 238.738281 L 361.148438 238.765625 L 361.609375 238.820312 L 361.761719 238.84375 L 361.839844 238.851562 L 362.300781 238.921875 L 362.527344 238.957031 L 362.757812 238.996094 L 362.984375 239.03125 L 363.214844 239.070312 L 363.441406 239.113281 L 363.671875 239.152344 L 363.898438 239.195312 L 364.128906 239.238281 L 364.582031 239.324219 L 365.488281 239.511719 L 366.394531 239.714844 L 366.617188 239.769531 L 366.84375 239.824219 L 367.066406 239.878906 L 367.292969 239.933594 L 367.738281 240.050781 L 367.964844 240.109375 L 367.976562 240.113281 L 368.183594 240.171875 L 368.40625 240.234375 L 368.628906 240.300781 L 368.851562 240.363281 L 369.070312 240.433594 L 369.292969 240.5 L 369.511719 240.570312 L 369.730469 240.636719 L 369.949219 240.710938 L 370.171875 240.78125 L 370.386719 240.851562 L 370.824219 241 L 371.039062 241.074219 L 371.476562 241.230469 L 372.121094 241.464844 L 372.765625 241.710938 L 372.976562 241.796875 L 373.191406 241.878906 L 373.824219 242.136719 L 374.246094 242.316406 L 374.265625 242.324219 L 374.453125 242.40625 L 374.664062 242.5 L 374.871094 242.59375 L 375.078125 242.691406 L 375.285156 242.785156 L 375.492188 242.882812 L 375.695312 242.980469 L 375.902344 243.078125 L 376.714844 243.484375 L 376.914062 243.585938 L 377.117188 243.691406 L 377.316406 243.796875 L 377.519531 243.902344 L 377.71875 244.007812 L 377.914062 244.117188 L 378.113281 244.226562 L 378.308594 244.335938 L 378.507812 244.445312 L 378.898438 244.671875 L 379.09375 244.78125 L 379.285156 244.898438 L 379.480469 245.011719 L 379.863281 245.246094 L 380.03125 245.347656 L 380.054688 245.363281 L 380.242188 245.484375 L 380.433594 245.605469 L 380.617188 245.726562 L 380.992188 245.976562 L 381.175781 246.101562 L 381.363281 246.226562 L 381.546875 246.355469 L 381.726562 246.480469 L 382.09375 246.738281 L 382.273438 246.871094 L 382.449219 247 L 382.808594 247.265625 L 382.984375 247.402344 L 383.160156 247.535156 L 383.511719 247.808594 L 383.683594 247.945312 L 383.855469 248.085938 L 384.027344 248.222656 L 384.199219 248.363281 L 384.367188 248.503906 L 384.539062 248.644531 L 384.707031 248.789062 L 384.871094 248.933594 L 385.039062 249.074219 L 385.203125 249.222656 L 385.367188 249.367188 L 385.53125 249.515625 L 385.695312 249.660156 L 385.855469 249.8125 L 386.175781 250.109375 L 386.488281 250.414062 L 386.648438 250.566406 L 386.800781 250.722656 L 386.957031 250.875 L 387.414062 251.34375 L 387.5625 251.503906 L 387.710938 251.660156 L 388.007812 251.980469 L 388.296875 252.308594 L 388.578125 252.636719 L 388.722656 252.800781 L 388.996094 253.136719 L 389.136719 253.304688 L 389.269531 253.472656 L 389.40625 253.644531 L 389.539062 253.8125 L 389.671875 253.984375 L 389.800781 254.15625 L 389.929688 254.332031 L 390.058594 254.503906 L 390.1875 254.679688 L 390.4375 255.03125 L 390.5625 255.210938 L 390.683594 255.386719 L 390.695312 255.402344 L 390.804688 255.5625 L 390.808594 255.566406 L 390.992188 256.28125 L 390.695312 256.890625 L 390.691406 256.894531 L 390.6875 256.894531 L 390.035156 257.070312" fill="#2f1616" fill-rule="evenodd"/></g><g id="change4_4"><path d="M 463.828125 253.230469 L 463.949219 253.230469 L 464.0625 253.234375 L 464.296875 253.242188 L 464.527344 253.246094 L 464.761719 253.257812 L 464.996094 253.265625 L 465.226562 253.273438 L 465.460938 253.28125 L 465.929688 253.304688 L 466.160156 253.316406 L 466.363281 253.324219 L 466.394531 253.328125 L 466.628906 253.347656 L 466.859375 253.363281 L 467.09375 253.382812 L 467.324219 253.402344 L 467.792969 253.441406 L 468.023438 253.464844 L 468.257812 253.484375 L 468.492188 253.507812 L 468.722656 253.53125 L 468.957031 253.558594 L 469.011719 253.5625 L 469.1875 253.585938 L 469.421875 253.613281 L 469.652344 253.644531 L 469.886719 253.679688 L 470.347656 253.742188 L 470.578125 253.777344 L 470.8125 253.808594 L 471.042969 253.847656 L 471.734375 253.953125 L 472.65625 254.109375 L 473.117188 254.195312 L 473.347656 254.234375 L 473.574219 254.277344 L 473.804688 254.324219 L 474.035156 254.367188 L 474.261719 254.414062 L 474.492188 254.460938 L 474.71875 254.507812 L 474.769531 254.515625 L 474.945312 254.558594 L 475.175781 254.609375 L 475.402344 254.660156 L 475.855469 254.769531 L 476.078125 254.824219 L 476.304688 254.882812 L 476.53125 254.9375 L 476.757812 254.996094 L 476.980469 255.054688 L 477.207031 255.113281 L 477.429688 255.175781 L 477.652344 255.234375 L 477.878906 255.296875 L 478.546875 255.484375 L 478.769531 255.550781 L 478.988281 255.617188 L 479.433594 255.75 L 479.652344 255.816406 L 479.875 255.886719 L 480.09375 255.953125 L 480.3125 256.023438 L 480.53125 256.097656 L 480.703125 256.152344 L 480.753906 256.167969 L 480.96875 256.242188 L 481.1875 256.320312 L 481.402344 256.398438 L 481.621094 256.476562 L 482.265625 256.710938 L 482.910156 256.957031 L 483.121094 257.039062 L 483.335938 257.125 L 484.179688 257.46875 L 484.390625 257.558594 L 484.597656 257.648438 L 484.808594 257.738281 L 485.015625 257.828125 L 485.222656 257.921875 L 485.433594 258.011719 L 485.640625 258.105469 L 485.84375 258.199219 L 486.050781 258.296875 L 486.253906 258.390625 L 486.296875 258.410156 L 486.460938 258.492188 L 486.660156 258.589844 L 487.066406 258.792969 L 487.265625 258.894531 L 487.46875 259 L 487.667969 259.101562 L 488.066406 259.3125 L 488.261719 259.421875 L 488.460938 259.527344 L 489.046875 259.855469 L 489.242188 259.96875 L 489.4375 260.078125 L 489.820312 260.304688 L 490.011719 260.421875 L 490.203125 260.535156 L 490.585938 260.769531 L 490.773438 260.886719 L 490.960938 261.007812 L 491.148438 261.125 L 491.335938 261.246094 L 491.703125 261.488281 L 491.890625 261.613281 L 492.070312 261.738281 L 492.4375 261.988281 L 492.617188 262.113281 L 493.15625 262.5 L 493.332031 262.632812 L 493.507812 262.761719 L 494.035156 263.160156 L 494.378906 263.433594 L 494.550781 263.566406 L 494.640625 263.636719 L 494.722656 263.707031 L 495.226562 264.128906 L 495.390625 264.269531 L 495.558594 264.414062 L 495.722656 264.558594 L 495.882812 264.703125 L 496.046875 264.851562 L 496.207031 264.996094 L 496.6875 265.441406 L 497.15625 265.898438 L 497.308594 266.050781 L 497.464844 266.203125 L 497.488281 266.230469 L 497.613281 266.359375 L 497.617188 266.363281 L 497.929688 267.03125 L 497.75 267.683594 L 497.746094 267.6875 L 497.746094 267.691406 L 497.136719 267.980469 L 496.421875 267.796875 L 496.417969 267.796875 L 496.269531 267.699219 L 496.242188 267.679688 L 495.898438 267.453125 L 495.554688 267.234375 L 495.203125 267.015625 L 495.027344 266.910156 L 494.855469 266.804688 L 494.675781 266.699219 L 494.324219 266.496094 L 494.144531 266.394531 L 493.96875 266.296875 L 493.789062 266.195312 L 493.609375 266.097656 L 493.429688 266.003906 L 493.246094 265.90625 L 493.160156 265.859375 L 493.066406 265.8125 L 492.886719 265.714844 L 492.707031 265.621094 L 492.523438 265.527344 L 492.34375 265.4375 L 491.609375 265.078125 L 491.425781 264.992188 L 491.238281 264.90625 L 491.054688 264.820312 L 490.867188 264.738281 L 490.679688 264.652344 L 490.492188 264.570312 L 490.304688 264.492188 L 490.117188 264.410156 L 489.742188 264.253906 L 489.550781 264.175781 L 489.363281 264.101562 L 489.171875 264.023438 L 488.980469 263.949219 L 488.789062 263.878906 L 488.597656 263.804688 L 488.023438 263.59375 L 487.828125 263.523438 L 487.636719 263.457031 L 487.050781 263.257812 L 486.269531 263.007812 L 486.070312 262.949219 L 485.875 262.890625 L 485.675781 262.828125 L 485.480469 262.773438 L 485.28125 262.714844 L 484.882812 262.605469 L 484.722656 262.5625 L 484.683594 262.550781 L 484.484375 262.492188 L 484.285156 262.441406 L 483.886719 262.332031 L 483.488281 262.230469 L 483.285156 262.179688 L 483.085938 262.128906 L 482.882812 262.082031 L 482.679688 262.03125 L 482.480469 261.984375 L 482.277344 261.9375 L 482.074219 261.894531 L 481.871094 261.847656 L 481.464844 261.761719 L 481.261719 261.722656 L 481.054688 261.679688 L 480.851562 261.640625 L 480.644531 261.597656 L 480.441406 261.558594 L 480.234375 261.523438 L 480.03125 261.484375 L 479.410156 261.378906 L 479.367188 261.371094 L 479.203125 261.34375 L 479 261.308594 L 478.378906 261.203125 L 477.964844 261.140625 L 477.753906 261.109375 L 477.546875 261.078125 L 477.339844 261.050781 L 477.132812 261.019531 L 476.921875 260.992188 L 476.714844 260.964844 L 476.503906 260.9375 L 476.296875 260.910156 L 475.664062 260.839844 L 475.457031 260.816406 L 475.246094 260.792969 L 474.824219 260.753906 L 474.613281 260.730469 L 474.402344 260.714844 L 473.980469 260.675781 L 473.8125 260.664062 L 473.769531 260.660156 L 473.558594 260.640625 L 473.347656 260.617188 L 473.136719 260.601562 L 472.925781 260.582031 L 472.503906 260.550781 L 472.289062 260.53125 L 472.078125 260.519531 L 471.867188 260.503906 L 471.652344 260.488281 L 471.230469 260.464844 L 471.015625 260.453125 L 470.804688 260.441406 L 470.589844 260.429688 L 470.378906 260.421875 L 470.164062 260.410156 L 469.953125 260.402344 L 469.738281 260.394531 L 469.527344 260.386719 L 469.3125 260.382812 L 469.101562 260.375 L 468.886719 260.371094 L 468.675781 260.367188 L 468.511719 260.363281 L 468.460938 260.363281 L 468.246094 260.355469 L 468.035156 260.347656 L 467.820312 260.339844 L 467.609375 260.335938 L 467.394531 260.332031 L 467.183594 260.324219 L 466.96875 260.324219 L 466.753906 260.320312 L 466.542969 260.316406 L 466.328125 260.316406 L 466.113281 260.3125 L 466.085938 260.3125 L 465.902344 260.308594 L 465.6875 260.304688 L 465.476562 260.300781 L 465.261719 260.300781 L 465.050781 260.296875 L 464.835938 260.296875 L 464.621094 260.292969 L 464.195312 260.292969 L 463.984375 260.296875 L 463.882812 260.296875 L 463.769531 260.292969 L 463.558594 260.289062 L 463.34375 260.289062 L 463.132812 260.285156 L 462.277344 260.285156 L 462.066406 260.289062 L 461.851562 260.289062 L 461.761719 260.292969 L 461.640625 260.292969 L 461.429688 260.289062 L 461.214844 260.292969 L 460.789062 260.292969 L 460.578125 260.296875 L 460.363281 260.300781 L 460.152344 260.300781 L 459.941406 260.304688 L 459.726562 260.308594 L 459.574219 260.3125 L 459.515625 260.3125 L 459.304688 260.316406 L 459.089844 260.316406 L 458.667969 260.324219 L 458.453125 260.324219 L 458.242188 260.328125 L 458.03125 260.335938 L 457.820312 260.339844 L 457.609375 260.347656 L 457.398438 260.351562 L 456.34375 260.390625 L 456.132812 260.402344 L 455.925781 260.410156 L 455.503906 260.433594 L 455.296875 260.445312 L 455.085938 260.457031 L 455.050781 260.460938 L 454.875 260.46875 L 454.667969 260.476562 L 454.457031 260.484375 L 454.25 260.496094 L 454.039062 260.507812 L 453.832031 260.515625 L 453.621094 260.527344 L 453.414062 260.539062 L 453.207031 260.554688 L 452.792969 260.578125 L 451.964844 260.640625 L 451.761719 260.65625 L 451.347656 260.6875 L 451.144531 260.707031 L 450.9375 260.726562 L 450.734375 260.742188 L 450.527344 260.761719 L 450.449219 260.769531 L 450.324219 260.78125 L 450.121094 260.796875 L 449.917969 260.816406 L 449.714844 260.832031 L 448.699219 260.929688 L 448.5 260.949219 L 448.296875 260.972656 L 448.097656 260.992188 L 447.898438 261.015625 L 447.695312 261.039062 L 447.097656 261.109375 L 446.902344 261.132812 L 446.703125 261.160156 L 446.503906 261.183594 L 446.308594 261.210938 L 446.109375 261.234375 L 445.914062 261.261719 L 445.902344 261.265625 L 445.71875 261.285156 L 445.523438 261.3125 L 445.324219 261.335938 L 445.132812 261.363281 L 444.9375 261.386719 L 444.742188 261.414062 L 444.550781 261.441406 L 444.460938 261.453125 L 444.375 261.464844 L 444.285156 261.476562 L 444.199219 261.488281 L 443.929688 261.535156 L 443.835938 261.550781 L 443.746094 261.566406 L 443.558594 261.605469 L 443.46875 261.621094 L 443.371094 261.644531 L 443.183594 261.683594 L 443.085938 261.707031 L 442.992188 261.730469 L 442.601562 261.824219 L 442.503906 261.851562 L 442.402344 261.878906 L 442.304688 261.90625 L 442 261.988281 L 441.902344 262.015625 L 441.488281 262.140625 L 441.285156 262.203125 L 441.074219 262.265625 L 440.867188 262.335938 L 440.65625 262.402344 L 440.445312 262.472656 L 440.230469 262.542969 L 440.019531 262.617188 L 439.804688 262.691406 L 439.585938 262.765625 L 439.371094 262.839844 L 438.9375 262.992188 L 438.5 263.148438 L 438.058594 263.304688 L 437.960938 263.339844 L 437.617188 263.457031 L 437.171875 263.605469 L 436.949219 263.683594 L 436.503906 263.832031 L 436.28125 263.902344 L 436.058594 263.976562 L 435.835938 264.046875 L 435.609375 264.117188 L 435.386719 264.1875 L 434.71875 264.386719 L 434.605469 264.417969 L 434.386719 264.480469 L 434.273438 264.511719 L 434.164062 264.542969 L 434.050781 264.570312 L 433.941406 264.601562 L 433.828125 264.628906 L 433.609375 264.683594 L 433.496094 264.710938 L 433.277344 264.765625 L 433.167969 264.789062 L 433.054688 264.8125 L 432.945312 264.839844 L 432.835938 264.859375 L 432.617188 264.90625 L 432.507812 264.925781 L 432.398438 264.949219 L 432.289062 264.96875 L 432.179688 264.984375 L 431.960938 265.023438 L 431.742188 265.054688 L 431.636719 265.070312 L 431.527344 265.085938 L 431.417969 265.097656 L 431.3125 265.109375 L 431.203125 265.121094 L 431.183594 265.121094 L 431.09375 265.132812 L 430.992188 265.140625 L 430.988281 265.140625 L 430.113281 264.90625 L 429.640625 264.210938 L 429.640625 264.203125 L 429.835938 263.390625 L 430.566406 262.855469 L 430.660156 262.828125 L 430.730469 262.804688 L 430.746094 262.800781 L 430.828125 262.773438 L 430.914062 262.746094 L 430.996094 262.714844 L 431.082031 262.6875 L 431.167969 262.65625 L 431.253906 262.621094 L 431.425781 262.558594 L 431.515625 262.523438 L 431.6875 262.453125 L 431.777344 262.417969 L 431.863281 262.378906 L 431.953125 262.34375 L 432.039062 262.304688 L 432.21875 262.226562 L 432.308594 262.183594 L 432.398438 262.144531 L 432.757812 261.972656 L 432.851562 261.925781 L 432.941406 261.882812 L 433.03125 261.835938 L 433.21875 261.742188 L 433.308594 261.695312 L 433.402344 261.648438 L 433.496094 261.597656 L 433.585938 261.550781 L 433.773438 261.449219 L 433.964844 261.347656 L 434.152344 261.242188 L 434.34375 261.136719 L 434.53125 261.03125 L 434.722656 260.921875 L 434.917969 260.8125 L 435.109375 260.699219 L 435.304688 260.589844 L 435.5 260.476562 L 435.890625 260.242188 L 436.089844 260.128906 L 436.398438 259.945312 L 436.488281 259.890625 L 436.890625 259.660156 L 437.300781 259.425781 L 437.707031 259.191406 L 437.914062 259.074219 L 438.121094 258.960938 L 438.328125 258.84375 L 438.539062 258.726562 L 438.746094 258.613281 L 438.957031 258.496094 L 439.167969 258.382812 L 439.382812 258.269531 L 439.59375 258.15625 L 440.238281 257.828125 L 440.347656 257.777344 L 440.566406 257.667969 L 440.785156 257.566406 L 440.894531 257.511719 L 441.222656 257.359375 L 441.335938 257.3125 L 441.445312 257.261719 L 441.558594 257.214844 L 441.667969 257.164062 L 442.007812 257.023438 L 442.117188 256.976562 L 442.234375 256.933594 L 442.347656 256.886719 L 442.574219 256.800781 L 442.691406 256.757812 L 442.804688 256.71875 L 442.921875 256.675781 L 443.035156 256.636719 L 443.269531 256.558594 L 443.382812 256.519531 L 443.585938 256.453125 L 443.785156 256.390625 L 443.984375 256.324219 L 444.183594 256.261719 L 444.386719 256.199219 L 444.585938 256.132812 L 444.777344 256.074219 L 444.789062 256.070312 L 445.398438 255.894531 L 445.605469 255.835938 L 445.808594 255.777344 L 446.015625 255.722656 L 446.222656 255.664062 L 446.429688 255.609375 L 446.636719 255.550781 L 446.84375 255.496094 L 447.054688 255.441406 L 447.261719 255.386719 L 447.683594 255.277344 L 447.894531 255.226562 L 448.316406 255.117188 L 448.527344 255.066406 L 448.742188 255.015625 L 448.953125 254.964844 L 449.382812 254.863281 L 449.511719 254.832031 L 449.597656 254.816406 L 450.242188 254.675781 L 450.460938 254.632812 L 450.675781 254.589844 L 450.894531 254.542969 L 451.113281 254.5 L 451.328125 254.457031 L 451.550781 254.414062 L 451.769531 254.375 L 451.988281 254.332031 L 452.207031 254.292969 L 452.429688 254.25 L 452.867188 254.171875 L 453.3125 254.09375 L 453.535156 254.058594 L 453.757812 254.019531 L 453.980469 253.984375 L 454.203125 253.945312 L 454.390625 253.917969 L 454.425781 253.910156 L 454.652344 253.882812 L 454.875 253.851562 L 455.101562 253.820312 L 455.324219 253.789062 L 456.457031 253.652344 L 456.683594 253.628906 L 456.910156 253.601562 L 457.136719 253.578125 L 457.367188 253.554688 L 457.59375 253.527344 L 457.820312 253.507812 L 458.050781 253.484375 L 458.277344 253.460938 L 458.738281 253.421875 L 458.96875 253.398438 L 459.195312 253.378906 L 459.261719 253.375 L 459.425781 253.363281 L 459.65625 253.351562 L 459.886719 253.335938 L 460.117188 253.324219 L 460.347656 253.308594 L 460.578125 253.300781 L 460.8125 253.285156 L 461.042969 253.277344 L 461.273438 253.265625 L 461.503906 253.257812 L 461.640625 253.253906 L 461.738281 253.25 L 462.199219 253.242188 L 462.433594 253.238281 L 462.664062 253.234375 L 462.898438 253.234375 L 463.132812 253.230469 L 463.828125 253.230469" fill="#2f1616" fill-rule="evenodd"/></g><g id="change4_5"><path d="M 363.886719 409.957031 L 363.882812 409.960938 L 363.28125 410.390625 L 363.324219 410.378906 L 363.316406 410.382812 L 363.4375 410.339844 L 363.429688 410.34375 L 363.53125 410.296875 L 363.523438 410.300781 L 363.609375 410.246094 L 363.601562 410.253906 L 363.675781 410.199219 L 363.667969 410.207031 L 363.730469 410.15625 L 363.722656 410.164062 L 363.773438 410.113281 L 363.765625 410.121094 L 363.808594 410.078125 L 363.796875 410.085938 L 363.832031 410.046875 L 363.824219 410.054688 L 363.855469 410.019531 L 363.84375 410.027344 L 363.867188 409.996094 L 363.859375 410.007812 L 363.882812 409.976562 L 363.871094 409.988281 L 363.890625 409.960938 L 363.878906 409.972656 L 363.894531 409.949219 L 363.882812 409.964844 L 363.898438 409.941406 Z M 364.902344 411.070312 L 364.894531 411.046875 L 364.914062 411.082031 L 364.929688 411.117188 L 364.917969 411.089844 L 364.941406 411.132812 L 364.929688 411.101562 L 364.949219 411.144531 L 364.933594 411.109375 L 364.957031 411.152344 L 364.945312 411.121094 L 364.953125 411.140625 L 364.945312 411.121094 L 364.957031 411.140625 L 364.945312 411.117188 L 364.957031 411.136719 L 364.945312 411.113281 L 364.957031 411.128906 L 364.941406 411.105469 L 364.953125 411.121094 L 364.941406 411.097656 L 364.953125 411.113281 L 364.941406 411.09375 L 364.988281 411.160156 L 365.035156 411.222656 L 365.085938 411.285156 L 365.132812 411.347656 L 365.179688 411.40625 L 365.230469 411.464844 L 365.277344 411.527344 L 365.53125 411.820312 L 365.585938 411.878906 L 365.636719 411.933594 L 365.691406 411.992188 L 365.742188 412.046875 L 365.796875 412.105469 L 365.851562 412.160156 L 365.90625 412.21875 L 365.960938 412.273438 L 366.019531 412.328125 L 366.128906 412.4375 L 366.304688 412.601562 L 366.359375 412.65625 L 366.421875 412.707031 L 366.539062 412.816406 L 366.597656 412.867188 L 366.65625 412.921875 L 366.71875 412.972656 L 366.78125 413.027344 L 366.84375 413.078125 L 366.902344 413.128906 L 366.964844 413.183594 L 367.152344 413.335938 L 367.21875 413.386719 L 367.28125 413.4375 L 367.347656 413.488281 L 367.410156 413.539062 L 367.539062 413.640625 L 367.671875 413.738281 L 367.804688 413.839844 L 367.9375 413.9375 L 368.074219 414.035156 L 368.210938 414.136719 L 368.347656 414.230469 L 368.476562 414.324219 L 368.484375 414.328125 L 368.625 414.429688 L 368.761719 414.527344 L 368.871094 414.601562 L 368.984375 414.679688 L 369.203125 414.828125 L 369.316406 414.90625 L 369.429688 414.980469 L 369.539062 415.054688 L 369.652344 415.125 L 369.878906 415.273438 L 370.21875 415.484375 L 370.335938 415.558594 L 370.449219 415.628906 L 370.5625 415.695312 L 370.796875 415.835938 L 370.910156 415.902344 L 371.027344 415.972656 L 371.613281 416.304688 L 371.734375 416.367188 L 371.851562 416.433594 L 371.972656 416.496094 L 372.089844 416.5625 L 372.210938 416.625 L 372.328125 416.6875 L 372.8125 416.9375 L 372.933594 416.996094 L 373.054688 417.058594 L 373.175781 417.117188 L 373.296875 417.179688 L 373.421875 417.238281 L 373.664062 417.355469 L 373.789062 417.414062 L 373.910156 417.472656 L 374.035156 417.527344 L 374.160156 417.585938 L 374.28125 417.640625 L 374.40625 417.699219 L 375.15625 418.027344 L 375.285156 418.082031 L 375.410156 418.132812 L 375.535156 418.1875 L 375.664062 418.238281 L 375.789062 418.289062 L 375.917969 418.34375 L 376.042969 418.394531 L 376.300781 418.496094 L 376.425781 418.546875 L 376.554688 418.59375 L 376.683594 418.644531 L 376.8125 418.691406 L 376.941406 418.742188 L 377.066406 418.789062 L 377.195312 418.839844 L 377.273438 418.867188 L 377.324219 418.886719 L 377.453125 418.933594 L 377.582031 418.984375 L 377.839844 419.078125 L 377.96875 419.128906 L 378.226562 419.222656 L 378.359375 419.269531 L 378.488281 419.3125 L 378.746094 419.40625 L 378.878906 419.449219 L 379.007812 419.496094 L 379.269531 419.585938 L 380.054688 419.84375 L 380.316406 419.925781 L 380.582031 420.011719 L 380.84375 420.089844 L 381.109375 420.171875 L 381.640625 420.328125 L 381.902344 420.402344 L 382.167969 420.476562 L 382.429688 420.550781 L 382.433594 420.554688 L 383.496094 420.851562 L 384.558594 421.132812 L 384.824219 421.199219 L 385.03125 421.253906 L 385.242188 421.304688 L 385.449219 421.355469 L 385.660156 421.40625 L 385.867188 421.453125 L 386.289062 421.554688 L 386.496094 421.601562 L 386.707031 421.648438 L 386.917969 421.699219 L 387.128906 421.742188 L 387.761719 421.882812 L 387.800781 421.890625 L 387.972656 421.929688 L 388.179688 421.976562 L 388.601562 422.070312 L 388.8125 422.113281 L 389.023438 422.160156 L 390.289062 422.417969 L 390.503906 422.457031 L 390.714844 422.496094 L 390.925781 422.539062 L 391.136719 422.578125 L 391.351562 422.613281 L 391.773438 422.691406 L 391.988281 422.726562 L 392.410156 422.796875 L 392.625 422.832031 L 392.835938 422.867188 L 393.050781 422.898438 L 393.140625 422.914062 L 393.261719 422.933594 L 393.472656 422.972656 L 393.6875 423.007812 L 393.898438 423.039062 L 394.109375 423.074219 L 394.324219 423.105469 L 394.535156 423.140625 L 394.75 423.171875 L 394.960938 423.203125 L 395.175781 423.234375 L 395.386719 423.261719 L 395.601562 423.292969 L 395.738281 423.3125 L 395.8125 423.320312 L 396.023438 423.351562 L 396.238281 423.382812 L 396.449219 423.414062 L 396.660156 423.441406 L 397.089844 423.496094 L 397.511719 423.550781 L 397.726562 423.574219 L 397.9375 423.601562 L 398.152344 423.625 L 398.261719 423.636719 L 398.363281 423.652344 L 398.574219 423.675781 L 398.789062 423.703125 L 399 423.730469 L 399.214844 423.753906 L 399.636719 423.800781 L 399.851562 423.824219 L 400.0625 423.84375 L 400.273438 423.867188 L 400.488281 423.886719 L 400.699219 423.90625 L 400.890625 423.925781 L 400.910156 423.925781 L 401.125 423.949219 L 401.546875 423.988281 L 401.761719 424.011719 L 401.972656 424.027344 L 402.394531 424.066406 L 402.609375 424.082031 L 403.242188 424.128906 L 403.457031 424.144531 L 403.667969 424.15625 L 403.785156 424.164062 L 403.878906 424.171875 L 404.09375 424.1875 L 404.304688 424.203125 L 404.515625 424.214844 L 404.726562 424.230469 L 405.359375 424.265625 L 405.574219 424.277344 L 405.996094 424.292969 L 406.207031 424.304688 L 406.417969 424.308594 L 406.839844 424.324219 L 407.683594 424.339844 L 407.894531 424.339844 L 408.105469 424.34375 L 408.738281 424.34375 L 409.160156 424.335938 L 409.371094 424.335938 L 409.578125 424.328125 L 410 424.320312 L 410.144531 424.316406 L 410.210938 424.3125 L 410.421875 424.308594 L 410.628906 424.304688 L 410.839844 424.300781 L 411.050781 424.292969 L 411.257812 424.285156 L 411.46875 424.277344 L 411.679688 424.265625 L 411.886719 424.257812 L 412.097656 424.246094 L 412.304688 424.234375 L 412.515625 424.222656 L 412.722656 424.210938 L 412.933594 424.195312 L 413.347656 424.164062 L 413.558594 424.148438 L 413.765625 424.132812 L 413.972656 424.113281 L 414.183594 424.09375 L 414.597656 424.054688 L 414.804688 424.03125 L 415.011719 424.011719 L 415.425781 423.964844 L 415.839844 423.910156 L 416.046875 423.886719 L 416.253906 423.855469 L 416.457031 423.828125 L 416.664062 423.800781 L 416.824219 423.777344 L 416.871094 423.769531 L 417.074219 423.742188 L 417.695312 423.648438 L 417.898438 423.613281 L 418.105469 423.582031 L 418.308594 423.546875 L 418.515625 423.511719 L 418.71875 423.476562 L 418.921875 423.4375 L 419.128906 423.398438 L 419.738281 423.28125 L 420.550781 423.109375 L 421.363281 422.921875 L 421.5625 422.871094 L 421.765625 422.820312 L 421.964844 422.769531 L 422.167969 422.71875 L 422.367188 422.664062 L 422.570312 422.609375 L 422.96875 422.5 L 423.171875 422.441406 L 423.257812 422.414062 L 423.371094 422.386719 L 423.96875 422.210938 L 424.167969 422.148438 L 424.367188 422.089844 L 424.765625 421.964844 L 424.964844 421.898438 L 425.164062 421.835938 L 425.359375 421.769531 L 425.558594 421.703125 L 425.757812 421.632812 L 425.953125 421.5625 L 426.152344 421.492188 L 426.542969 421.351562 L 426.738281 421.277344 L 426.9375 421.203125 L 427.132812 421.128906 L 427.71875 420.894531 L 427.910156 420.816406 L 428.300781 420.652344 L 428.492188 420.570312 L 428.6875 420.484375 L 428.878906 420.398438 L 429.074219 420.3125 L 429.457031 420.140625 L 429.839844 419.960938 L 430.605469 419.585938 L 430.792969 419.488281 L 430.984375 419.394531 L 431.171875 419.292969 L 431.363281 419.195312 L 431.925781 418.890625 L 432.675781 418.46875 L 432.863281 418.359375 L 433.046875 418.246094 L 433.234375 418.136719 L 433.269531 418.113281 L 433.417969 418.027344 L 433.605469 417.914062 L 433.789062 417.800781 L 433.976562 417.6875 L 434.710938 417.21875 L 435.078125 416.976562 L 435.261719 416.851562 L 435.441406 416.730469 L 435.625 416.605469 L 435.984375 416.347656 L 436.167969 416.21875 L 436.527344 415.960938 L 436.707031 415.824219 L 436.886719 415.691406 L 436.898438 415.683594 L 437.070312 415.554688 L 437.773438 415.335938 L 438.394531 415.605469 L 438.402344 415.613281 L 438.609375 416.261719 L 438.324219 416.9375 L 438.320312 416.941406 L 438.171875 417.101562 L 438.160156 417.109375 L 438 417.28125 L 437.839844 417.449219 L 437.511719 417.785156 L 437.347656 417.949219 L 437.183594 418.117188 L 437.019531 418.28125 L 436.851562 418.441406 L 436.683594 418.605469 L 436.347656 418.925781 L 436.179688 419.082031 L 436.007812 419.238281 L 435.835938 419.398438 L 435.664062 419.550781 L 435.492188 419.707031 L 435.316406 419.859375 L 435.144531 420.011719 L 434.96875 420.164062 L 434.828125 420.28125 L 434.792969 420.3125 L 434.613281 420.460938 L 434.4375 420.605469 L 434.257812 420.753906 L 434.078125 420.898438 L 433.898438 421.039062 L 433.71875 421.183594 L 433.535156 421.324219 L 433.355469 421.464844 L 433.171875 421.605469 L 432.988281 421.742188 L 432.800781 421.878906 L 432.433594 422.152344 L 431.683594 422.683594 L 431.492188 422.8125 L 431.304688 422.941406 L 431.113281 423.066406 L 430.921875 423.195312 L 430.539062 423.445312 L 430.34375 423.570312 L 430.152344 423.691406 L 429.566406 424.054688 L 429.175781 424.289062 L 428.777344 424.523438 L 428.582031 424.636719 L 428.183594 424.863281 L 427.980469 424.972656 L 427.78125 425.085938 L 427.578125 425.195312 L 427.378906 425.304688 L 426.566406 425.726562 L 426.359375 425.828125 L 426.15625 425.933594 L 425.949219 426.03125 L 425.535156 426.234375 L 425.121094 426.429688 L 424.914062 426.523438 L 424.800781 426.578125 L 424.703125 426.621094 L 424.496094 426.710938 L 424.285156 426.804688 L 423.863281 426.984375 L 423.652344 427.070312 L 423.4375 427.160156 L 423.226562 427.246094 L 423.011719 427.332031 L 422.800781 427.414062 L 422.585938 427.5 L 421.941406 427.746094 L 421.722656 427.824219 L 421.507812 427.902344 L 421.289062 427.980469 L 421.074219 428.058594 L 420.636719 428.207031 L 420.421875 428.28125 L 420.199219 428.355469 L 419.324219 428.636719 L 419.101562 428.703125 L 418.882812 428.773438 L 418.660156 428.839844 L 418.4375 428.902344 L 418.214844 428.96875 L 417.992188 429.03125 L 417.941406 429.046875 L 417.769531 429.09375 L 417.324219 429.210938 L 417.097656 429.265625 L 416.875 429.324219 L 416.648438 429.378906 L 416.425781 429.433594 L 416.199219 429.488281 L 415.972656 429.539062 L 415.746094 429.59375 L 415.292969 429.695312 L 415.066406 429.742188 L 414.839844 429.792969 L 414.613281 429.839844 L 414.382812 429.886719 L 414.15625 429.929688 L 413.929688 429.976562 L 413.699219 430.019531 L 413.472656 430.0625 L 413.242188 430.105469 L 412.78125 430.183594 L 412.554688 430.222656 L 412.09375 430.300781 L 411.171875 430.441406 L 410.9375 430.472656 L 410.707031 430.507812 L 410.636719 430.515625 L 410.476562 430.535156 L 410.242188 430.5625 L 410.011719 430.589844 L 409.777344 430.613281 L 409.546875 430.636719 L 409.078125 430.683594 L 408.847656 430.707031 L 408.613281 430.726562 L 408.378906 430.75 L 408.148438 430.769531 L 407.914062 430.785156 L 407.679688 430.804688 L 406.742188 430.867188 L 406.507812 430.878906 L 406.273438 430.894531 L 406.039062 430.90625 L 405.804688 430.914062 L 405.335938 430.9375 L 405.097656 430.945312 L 404.628906 430.960938 L 404.394531 430.964844 L 404.15625 430.972656 L 403.6875 430.980469 L 403.453125 430.980469 L 403.214844 430.976562 L 402.980469 430.976562 L 402.746094 430.972656 L 402.507812 430.96875 L 402.039062 430.960938 L 401.800781 430.953125 L 401.332031 430.9375 L 401.09375 430.929688 L 400.859375 430.921875 L 400.625 430.910156 L 400.386719 430.898438 L 400.363281 430.898438 L 400.152344 430.882812 L 399.917969 430.867188 L 399.679688 430.851562 L 399.445312 430.835938 L 398.976562 430.796875 L 398.738281 430.777344 L 398.503906 430.757812 L 398.269531 430.734375 L 398.035156 430.714844 L 397.449219 430.65625 L 397.328125 430.640625 L 397.097656 430.613281 L 395.691406 430.425781 L 395.460938 430.390625 L 394.679688 430.273438 L 394.527344 430.246094 L 394.292969 430.207031 L 394.0625 430.164062 L 393.828125 430.121094 L 393.597656 430.082031 L 393.363281 430.039062 L 393.132812 429.992188 L 392.671875 429.90625 L 392.4375 429.859375 L 391.976562 429.765625 L 391.847656 429.738281 L 391.746094 429.71875 L 391.515625 429.664062 L 391.289062 429.613281 L 391.058594 429.558594 L 390.828125 429.507812 L 390.601562 429.453125 L 390.371094 429.398438 L 390.144531 429.339844 L 389.914062 429.285156 L 389.6875 429.226562 L 389.460938 429.171875 L 389.230469 429.113281 L 389.003906 429.054688 L 388.777344 428.992188 L 388.550781 428.933594 L 388.324219 428.871094 L 388.097656 428.8125 L 387.644531 428.6875 L 387.421875 428.625 L 387.195312 428.5625 L 386.96875 428.496094 L 386.746094 428.429688 L 386.519531 428.367188 L 386.296875 428.300781 L 386.117188 428.246094 L 386.070312 428.230469 L 385.851562 428.160156 L 385.40625 428.019531 L 384.960938 427.871094 L 384.742188 427.796875 L 384.519531 427.722656 L 384.300781 427.648438 L 384.078125 427.574219 L 383.859375 427.496094 L 383.640625 427.421875 L 382.984375 427.1875 L 382.703125 427.085938 L 382.425781 426.984375 L 382.144531 426.878906 L 381.863281 426.777344 L 381.585938 426.667969 L 381.304688 426.5625 L 381.023438 426.453125 L 380.746094 426.34375 L 380.464844 426.230469 L 380.460938 426.230469 L 380.1875 426.117188 L 379.910156 426 L 379.632812 425.878906 L 379.351562 425.761719 L 379.074219 425.640625 L 378.800781 425.515625 L 377.96875 425.140625 L 377.421875 424.882812 L 377.144531 424.75 L 376.597656 424.484375 L 376.460938 424.414062 L 376.324219 424.347656 L 376.1875 424.277344 L 376.054688 424.210938 L 375.78125 424.070312 L 375.644531 424.003906 L 375.511719 423.933594 L 375.375 423.859375 L 375.242188 423.789062 L 375.105469 423.71875 L 375.050781 423.6875 L 374.972656 423.644531 L 374.839844 423.570312 L 374.703125 423.496094 L 374.4375 423.347656 L 374.304688 423.269531 L 374.175781 423.195312 L 374.039062 423.117188 L 373.910156 423.042969 L 373.644531 422.886719 L 373.515625 422.808594 L 373.382812 422.730469 L 373.253906 422.652344 L 373.121094 422.574219 L 372.992188 422.492188 L 372.863281 422.414062 L 372.730469 422.332031 L 372.601562 422.253906 L 372.214844 422.007812 L 372.089844 421.925781 L 371.960938 421.84375 L 371.832031 421.757812 L 371.703125 421.675781 L 371.578125 421.589844 L 371.449219 421.507812 L 371.199219 421.335938 L 371.070312 421.25 L 370.820312 421.078125 L 370.695312 420.988281 L 370.570312 420.902344 L 370.445312 420.8125 L 370.324219 420.726562 L 370.074219 420.546875 L 369.710938 420.277344 L 369.585938 420.1875 L 369.464844 420.09375 L 369.34375 420.003906 L 369.222656 419.910156 L 369.105469 419.816406 L 368.863281 419.628906 L 368.628906 419.441406 L 368.507812 419.34375 L 368.390625 419.25 L 368.273438 419.152344 L 368.15625 419.058594 L 368.039062 418.960938 L 367.925781 418.863281 L 367.808594 418.765625 L 367.691406 418.664062 L 367.464844 418.46875 L 367.351562 418.367188 L 367.234375 418.269531 L 367.121094 418.167969 L 367.011719 418.066406 L 366.785156 417.863281 L 366.675781 417.757812 L 366.566406 417.65625 L 366.453125 417.550781 L 366.347656 417.449219 L 366.210938 417.316406 L 366.074219 417.1875 L 365.941406 417.054688 L 365.675781 416.78125 L 365.539062 416.644531 L 365.410156 416.507812 L 365.144531 416.226562 L 365.019531 416.085938 L 364.953125 416.011719 L 364.886719 415.941406 L 364.824219 415.867188 L 364.757812 415.796875 L 364.632812 415.648438 L 364.566406 415.574219 L 364.503906 415.503906 L 364.441406 415.425781 L 364.316406 415.277344 L 364.257812 415.199219 L 364.132812 415.050781 L 364.074219 414.972656 L 364.011719 414.894531 L 363.71875 414.503906 L 363.660156 414.421875 L 363.601562 414.34375 L 363.546875 414.261719 L 363.488281 414.179688 L 363.378906 414.015625 L 363.320312 413.933594 L 363.265625 413.851562 L 363.214844 413.769531 L 363.160156 413.683594 L 363.105469 413.601562 L 363.003906 413.429688 L 362.949219 413.34375 L 362.902344 413.257812 L 362.800781 413.085938 L 362.753906 412.996094 L 362.703125 412.910156 L 362.5625 412.640625 L 362.515625 412.546875 L 362.492188 412.507812 L 362.472656 412.460938 L 362.449219 412.417969 L 362.410156 412.332031 L 362.390625 412.285156 L 362.363281 412.210938 L 362.335938 412.128906 L 362.308594 412.050781 L 362.289062 411.972656 L 362.265625 411.894531 L 362.25 411.820312 L 362.230469 411.742188 L 362.21875 411.671875 L 362.203125 411.597656 L 362.179688 411.449219 L 362.164062 411.378906 L 362.15625 411.304688 L 362.148438 411.234375 L 362.136719 411.160156 L 362.105469 410.886719 L 362.09375 410.75 L 362.074219 410.496094 L 362.0625 410.375 L 362.054688 410.261719 L 362.046875 410.15625 L 362.035156 410.058594 L 362.035156 410.054688 L 361.777344 409.714844 L 361.855469 408.824219 L 361.871094 408.789062 L 361.894531 408.75 L 361.921875 408.707031 L 361.949219 408.660156 L 361.980469 408.613281 L 362.015625 408.566406 L 362.054688 408.515625 L 362.101562 408.464844 L 362.15625 408.410156 L 362.222656 408.351562 L 362.296875 408.292969 L 362.386719 408.234375 L 362.492188 408.179688 L 362.609375 408.132812 L 362.742188 408.09375 L 362.890625 408.066406 L 363.042969 408.0625 L 363.089844 408.066406 L 363.199219 408.074219 L 363.347656 408.105469 L 363.484375 408.152344 L 363.605469 408.207031 L 363.714844 408.273438 L 363.804688 408.335938 L 363.878906 408.402344 L 363.941406 408.46875 L 363.996094 408.527344 L 364.042969 408.585938 L 364.082031 408.636719 L 364.144531 408.738281 L 364.171875 408.78125 L 364.195312 408.832031 L 364.230469 408.902344 L 364.261719 408.976562 L 364.316406 409.109375 L 364.335938 409.171875 L 364.359375 409.230469 L 364.378906 409.292969 L 364.394531 409.351562 L 364.414062 409.410156 L 364.445312 409.527344 L 364.464844 409.589844 L 364.527344 409.824219 L 364.589844 410.066406 L 364.652344 410.304688 L 364.683594 410.421875 L 364.714844 410.535156 L 364.746094 410.644531 L 364.761719 410.695312 L 364.777344 410.742188 L 364.796875 410.792969 L 364.8125 410.839844 L 364.824219 410.882812 L 364.84375 410.925781 L 364.855469 410.964844 L 364.875 411.007812 L 364.867188 410.988281 L 364.886719 411.03125 L 364.902344 411.070312" fill="#2f1616" fill-rule="evenodd"/></g><g id="change4_6"><path d="M 462.40625 302.796875 C 466.734375 302.796875 470.253906 307.660156 470.253906 313.652344 C 470.253906 319.648438 466.734375 324.511719 462.40625 324.511719 C 458.074219 324.511719 454.558594 319.648438 454.558594 313.652344 C 454.558594 307.660156 458.074219 302.796875 462.40625 302.796875" fill="#2f1616" fill-rule="evenodd"/></g><g id="change4_7"><path d="M 270.503906 326.90625 L 270.503906 327.417969 C 270.503906 327.417969 270.429688 326.824219 270.503906 326.90625 Z M 270.085938 327.523438 C 270.261719 327.546875 270.449219 327.476562 270.449219 327.476562 C 270.449219 327.476562 270.132812 327.480469 270.085938 327.523438 Z M 533.03125 345.75 C 533.070312 345.722656 533.109375 345.710938 533.152344 345.707031 C 533.035156 345.746094 533.253906 345.882812 533.03125 345.75 Z M 554.851562 336.351562 C 554.851562 336.351562 554.671875 336.707031 554.164062 336.84375 C 545.832031 339.117188 537.9375 342.605469 530.011719 345.984375 C 523.527344 348.75 516.636719 350.972656 511.710938 355.808594 C 511.554688 355.964844 511.398438 356.121094 511.253906 356.285156 C 511.128906 356.417969 511.011719 356.558594 510.898438 356.699219 C 510.148438 357.636719 509.589844 358.90625 510.078125 360.097656 L 509.875 360.628906 C 509.875 360.628906 509.375 360.550781 509.253906 360.300781 C 508.28125 358.300781 509.78125 355.867188 511.15625 354.414062 C 511.429688 354.125 511.714844 353.847656 512.003906 353.578125 C 518.773438 347.304688 528.097656 343.816406 535.90625 341.183594 C 541.925781 339.152344 548.046875 337.136719 554.285156 336.125 C 554.703125 336.058594 554.679688 336.242188 554.851562 336.351562 Z M 270.496094 326.65625 C 270.054688 326.191406 269.738281 325.859375 269.738281 325.859375 C 265.976562 321.816406 261.753906 317.96875 259.40625 313.152344 C 258.992188 312.304688 258.609375 311.328125 259.074219 310.527344 C 259.074219 310.527344 259.125 310.433594 259.265625 310.304688 L 259.855469 310.292969 C 259.855469 310.292969 259.804688 310.933594 259.847656 310.882812 C 259.449219 311.398438 259.734375 311.089844 259.792969 311.394531 C 260.105469 312.9375 261.433594 314.210938 262.574219 315.484375 C 266.078125 319.394531 270.054688 322.941406 273.5 326.300781 L 273.972656 326.761719 C 274.988281 327.769531 276.363281 329.160156 276.363281 329.160156 C 282.488281 335.511719 288.316406 342.507812 291.097656 350.992188 L 290.941406 351.539062 L 290.511719 351.34375 C 286.503906 342.3125 278.472656 334.917969 272.574219 328.832031 L 272.207031 328.453125 C 273.863281 331.0625 273.644531 334.863281 273.898438 337.558594 C 274.023438 338.792969 274.042969 338.792969 274.042969 338.792969 C 274.074219 339.109375 274.109375 339.425781 274.140625 339.742188 C 274.289062 341.324219 274.335938 341.925781 274.402344 342.992188 C 274.402344 342.992188 274.523438 345.242188 274.578125 346.578125 C 274.785156 351.261719 275.214844 355.980469 276.828125 360.359375 L 276.726562 360.964844 C 276.726562 360.964844 276.324219 360.875 276.101562 360.464844 C 272.984375 354.652344 272.09375 347.78125 271.808594 341.695312 C 271.808594 341.695312 271.71875 339.515625 271.660156 337.964844 C 271.640625 337.1875 271.636719 337.453125 271.664062 336.511719 C 271.765625 333.332031 272.203125 329.636719 270.410156 327.777344 C 270.21875 327.578125 270.625 327.914062 270.097656 327.554688 L 270.410156 327.777344 C 270.21875 327.578125 270.625 327.914062 270.097656 327.554688 C 270.078125 327.542969 270.078125 327.535156 270.085938 327.523438 C 269.933594 327.507812 269.789062 327.421875 269.769531 327.167969 C 269.769531 327.167969 269.800781 326.746094 270.246094 326.757812 C 270.402344 326.78125 270.398438 326.652344 270.496094 326.65625 Z M 533.03125 345.75 C 532.601562 346.023438 532.273438 347.585938 531.847656 348.894531 C 531.503906 349.949219 531.183594 351.011719 530.882812 352.078125 C 530.265625 354.242188 529.617188 356.421875 529.140625 358.566406 C 529.09375 358.769531 529.121094 358.667969 529.121094 358.667969 C 529.121094 358.667969 528.84375 360.488281 528.632812 361.875 C 527.324219 369.746094 525.25 377.28125 521.007812 384.117188 L 520.890625 384.304688 L 520.4375 384.445312 C 520.4375 384.445312 520.152344 384.328125 520.484375 383.609375 C 523.242188 377.5625 524.457031 370.949219 525.609375 364.496094 C 525.785156 363.53125 525.96875 362.570312 526.152344 361.613281 L 526.738281 358.730469 C 527.917969 353.273438 529.316406 350.730469 531.410156 346.785156 C 531.5 346.613281 531.59375 346.441406 531.691406 346.269531 C 531.761719 346.148438 531.835938 346.027344 531.90625 345.910156 C 531.972656 345.804688 532.042969 345.699219 532.113281 345.601562 C 532.152344 345.542969 532.195312 345.484375 532.238281 345.429688 C 532.515625 345.074219 533.109375 344.523438 533.539062 345.164062 L 533.441406 345.726562 L 532.894531 345.664062 C 532.953125 345.699219 532.996094 345.726562 533.03125 345.75" fill="#2f1616" fill-rule="evenodd"/></g><g clip-path="url(#a)" id="change3_2"><path d="M 70.445312 862.820312 C 82.273438 804.890625 70.230469 668.585938 153.730469 616.867188 C 159.910156 613.039062 224.136719 585.839844 225.644531 581.132812 L 224.597656 593.609375 C 209.398438 632.519531 199.171875 673.414062 191.289062 714.667969 C 185.964844 742.550781 181.714844 770.59375 177.726562 798.296875 C 175.976562 810.472656 174.742188 839.152344 171.203125 862.820312 L 70.445312 862.820312" fill="#9b2e1e" fill-rule="evenodd"/></g><g clip-path="url(#b)" id="change3_1"><path d="M 568.898438 594.289062 C 568.898438 594.289062 622.769531 604.015625 649.410156 636.566406 C 676.144531 669.226562 677.660156 786.519531 665.289062 862.820312 L 577.707031 862.820312 C 581.847656 808.710938 570.445312 763.585938 569.96875 711.140625 C 569.777344 690.632812 569.242188 593 568.898438 594.289062" fill="#9b2e1e" fill-rule="evenodd"/></g><g clip-path="url(#c)" id="change5_1"><path d="M 162.996094 707.664062 C 160.945312 698.289062 140.800781 628.578125 144.171875 621.667969 C 147.515625 614.820312 228.8125 577.015625 239.351562 570.179688 C 248.9375 563.96875 258.683594 557.980469 268.160156 551.609375 C 272.578125 548.636719 277.042969 545.574219 280.988281 542.015625 C 281.003906 542 281.636719 541.394531 281.652344 541.34375 C 282.078125 541.804688 326.179688 589.128906 406.734375 587.882812 C 440.765625 587.355469 483.390625 557.117188 483.390625 557.117188 L 593.375 601.871094 C 593.375 601.871094 565.011719 690.175781 571.640625 711.109375 C 579.046875 734.492188 590.871094 756.910156 595.316406 781.105469 C 600.75 810.664062 593.730469 838.933594 578.664062 862.820312 L 169.085938 862.820312 C 147.953125 834.65625 143.105469 803.109375 154.683594 753.578125 C 158.039062 739.222656 161.027344 724.738281 163.546875 710.195312 C 163.363281 709.351562 163.179688 708.507812 162.996094 707.664062" fill="#2b3219" fill-rule="evenodd"/></g></g></svg>